<svg width="116" height="116" viewBox="0 0 116 116" fill="none" xmlns="http://www.w3.org/2000/svg">
<g filter="url(#filter0_d_106_1027)">
<path d="M29.1074 96.5476V92.4196H30.552V97.8467H29.1927L29.1074 96.5476ZM29.2679 95.4341L29.6942 95.424C29.6942 95.7852 29.6525 96.1212 29.5689 96.4322C29.4853 96.7399 29.3599 97.0074 29.1927 97.2348C29.0255 97.4588 28.8148 97.6343 28.5607 97.7614C28.3065 97.8851 28.0073 97.947 27.6628 97.947C27.3987 97.947 27.1546 97.9102 26.9305 97.8366C26.7098 97.7597 26.5192 97.641 26.3587 97.4805C26.2016 97.3167 26.0779 97.1077 25.9876 96.8535C25.9006 96.5961 25.8572 96.2868 25.8572 95.9256V92.4196H27.3017V95.9357C27.3017 96.0962 27.3201 96.2316 27.3569 96.3419C27.397 96.4523 27.4522 96.5426 27.5224 96.6128C27.5926 96.683 27.6745 96.7332 27.7682 96.7633C27.8652 96.7934 27.9722 96.8084 28.0892 96.8084C28.3868 96.8084 28.6209 96.7482 28.7914 96.6278C28.9653 96.5075 29.0873 96.3436 29.1576 96.1363C29.2311 95.9256 29.2679 95.6916 29.2679 95.4341ZM34.5897 96.347C34.5897 96.2433 34.5596 96.1497 34.4994 96.0661C34.4392 95.9825 34.3272 95.9056 34.1633 95.8353C34.0028 95.7618 33.7704 95.6949 33.4661 95.6347C33.1919 95.5745 32.9361 95.4993 32.6987 95.409C32.4646 95.3154 32.2607 95.2033 32.0868 95.0729C31.9163 94.9425 31.7825 94.7887 31.6855 94.6115C31.5886 94.4309 31.5401 94.2253 31.5401 93.9945C31.5401 93.7672 31.5886 93.5531 31.6855 93.3525C31.7858 93.1519 31.928 92.9747 32.1119 92.8208C32.2991 92.6637 32.5265 92.5416 32.794 92.4547C33.0649 92.3644 33.3692 92.3193 33.7069 92.3193C34.1784 92.3193 34.583 92.3945 34.9207 92.545C35.2618 92.6954 35.5226 92.9028 35.7032 93.1669C35.8871 93.4278 35.9791 93.7254 35.9791 94.0597H34.5345C34.5345 93.9193 34.5044 93.7939 34.4442 93.6836C34.3874 93.5699 34.2971 93.4813 34.1734 93.4177C34.053 93.3508 33.8958 93.3174 33.7019 93.3174C33.5414 93.3174 33.4026 93.3458 33.2856 93.4027C33.1685 93.4562 33.0782 93.5297 33.0147 93.6234C32.9545 93.7137 32.9244 93.814 32.9244 93.9243C32.9244 94.0079 32.9412 94.0831 32.9746 94.15C33.0114 94.2136 33.0699 94.2721 33.1501 94.3256C33.2304 94.3791 33.3341 94.4292 33.4611 94.4761C33.5915 94.5195 33.752 94.5597 33.9426 94.5964C34.3339 94.6767 34.6833 94.782 34.9909 94.9124C35.2986 95.0395 35.5427 95.2134 35.7233 95.4341C35.9038 95.6514 35.9941 95.9373 35.9941 96.2918C35.9941 96.5325 35.9406 96.7532 35.8336 96.9539C35.7266 97.1545 35.5728 97.3301 35.3721 97.4805C35.1715 97.6277 34.9308 97.743 34.6499 97.8266C34.3723 97.9069 34.0597 97.947 33.7119 97.947C33.207 97.947 32.779 97.8567 32.4279 97.6761C32.0801 97.4956 31.8159 97.2665 31.6354 96.989C31.4581 96.7081 31.3695 96.4205 31.3695 96.1263H32.7388C32.7455 96.3235 32.7957 96.4824 32.8893 96.6028C32.9863 96.7231 33.1083 96.8101 33.2555 96.8636C33.4059 96.9171 33.5681 96.9438 33.742 96.9438C33.9293 96.9438 34.0848 96.9188 34.2085 96.8686C34.3322 96.8151 34.4258 96.7449 34.4894 96.6579C34.5562 96.5676 34.5897 96.464 34.5897 96.347ZM39.8613 96.6228V94.2052C39.8613 94.0313 39.8329 93.8825 39.776 93.7588C39.7192 93.6317 39.6306 93.5331 39.5102 93.4629C39.3932 93.3926 39.241 93.3575 39.0538 93.3575C38.8932 93.3575 38.7545 93.386 38.6374 93.4428C38.5204 93.4963 38.4301 93.5749 38.3666 93.6785C38.3031 93.7789 38.2713 93.8976 38.2713 94.0347H36.8267C36.8267 93.8039 36.8802 93.5849 36.9872 93.3776C37.0942 93.1703 37.2497 92.988 37.4537 92.8309C37.6577 92.6704 37.9001 92.545 38.181 92.4547C38.4652 92.3644 38.7829 92.3193 39.134 92.3193C39.5553 92.3193 39.9298 92.3895 40.2575 92.5299C40.5852 92.6704 40.8427 92.881 41.03 93.1619C41.2206 93.4428 41.3159 93.7939 41.3159 94.2152V96.5376C41.3159 96.8352 41.3343 97.0793 41.3711 97.2699C41.4078 97.4571 41.4613 97.621 41.5316 97.7614V97.8467H40.072C40.0017 97.6995 39.9482 97.5156 39.9115 97.2949C39.878 97.0709 39.8613 96.8469 39.8613 96.6228ZM40.0519 94.5413L40.0619 95.3588H39.2544C39.0638 95.3588 38.8983 95.3806 38.7578 95.424C38.6174 95.4675 38.502 95.5294 38.4117 95.6096C38.3214 95.6865 38.2546 95.7768 38.2111 95.8805C38.171 95.9841 38.1509 96.0978 38.1509 96.2216C38.1509 96.3453 38.1793 96.4573 38.2362 96.5576C38.293 96.6546 38.3749 96.7315 38.4819 96.7883C38.589 96.8418 38.7143 96.8686 38.8581 96.8686C39.0755 96.8686 39.2644 96.8251 39.4249 96.7382C39.5854 96.6512 39.7092 96.5442 39.7961 96.4172C39.8864 96.2901 39.9332 96.1697 39.9365 96.056L40.3177 96.668C40.2642 96.8051 40.1907 96.9472 40.097 97.0943C40.0068 97.2414 39.8914 97.3802 39.7509 97.5106C39.6105 97.6377 39.4416 97.743 39.2444 97.8266C39.0471 97.9069 38.813 97.947 38.5421 97.947C38.1977 97.947 37.8851 97.8784 37.6042 97.7413C37.3266 97.6009 37.1059 97.4086 36.9421 97.1645C36.7816 96.9171 36.7013 96.6362 36.7013 96.3219C36.7013 96.0376 36.7548 95.7852 36.8618 95.5645C36.9688 95.3438 37.126 95.1582 37.3333 95.0077C37.544 94.8539 37.8065 94.7385 38.1208 94.6616C38.4351 94.5814 38.7996 94.5413 39.2143 94.5413H40.0519ZM45.6345 96.6629V90.1424H47.0891V97.8467H45.78L45.6345 96.6629ZM42.2037 95.1983V95.093C42.2037 94.6784 42.2505 94.3022 42.3441 93.9644C42.4378 93.6234 42.5749 93.3308 42.7554 93.0867C42.936 92.8426 43.1584 92.6536 43.4225 92.5199C43.6867 92.3861 43.9876 92.3193 44.3254 92.3193C44.643 92.3193 44.9206 92.3861 45.158 92.5199C45.3988 92.6536 45.6027 92.8442 45.7699 93.0917C45.9405 93.3358 46.0776 93.625 46.1812 93.9594C46.2849 94.2905 46.3601 94.6533 46.4069 95.0479V95.2786C46.3601 95.6564 46.2849 96.0075 46.1812 96.3319C46.0776 96.6563 45.9405 96.9405 45.7699 97.1846C45.6027 97.4254 45.3988 97.6126 45.158 97.7464C44.9172 97.8801 44.6363 97.947 44.3153 97.947C43.9776 97.947 43.6767 97.8784 43.4125 97.7413C43.1517 97.6042 42.931 97.412 42.7504 97.1645C42.5732 96.9171 42.4378 96.6262 42.3441 96.2918C42.2505 95.9574 42.2037 95.5929 42.2037 95.1983ZM43.6482 95.093V95.1983C43.6482 95.4224 43.665 95.6314 43.6984 95.8253C43.7352 96.0193 43.7937 96.1915 43.8739 96.3419C43.9575 96.4891 44.0645 96.6044 44.195 96.688C44.3287 96.7683 44.4909 96.8084 44.6815 96.8084C44.9289 96.8084 45.1329 96.7532 45.2934 96.6429C45.4539 96.5292 45.576 96.3737 45.6596 96.1764C45.7465 95.9791 45.7967 95.7517 45.81 95.4943V94.8372C45.8 94.6265 45.7699 94.4376 45.7198 94.2704C45.673 94.0999 45.6027 93.9544 45.5091 93.834C45.4188 93.7137 45.3051 93.62 45.168 93.5531C45.0343 93.4863 44.8754 93.4528 44.6915 93.4528C44.5043 93.4528 44.3438 93.4963 44.21 93.5832C44.0763 93.6668 43.9676 93.7822 43.884 93.9293C43.8037 94.0765 43.7435 94.2503 43.7034 94.451C43.6666 94.6483 43.6482 94.8623 43.6482 95.093ZM49.7424 92.4196V97.8467H48.2929V92.4196H49.7424ZM48.2026 91.0051C48.2026 90.7945 48.2762 90.6206 48.4233 90.4835C48.5704 90.3464 48.7677 90.2778 49.0152 90.2778C49.2593 90.2778 49.4549 90.3464 49.602 90.4835C49.7525 90.6206 49.8277 90.7945 49.8277 91.0051C49.8277 91.2158 49.7525 91.3897 49.602 91.5268C49.4549 91.6639 49.2593 91.7324 49.0152 91.7324C48.7677 91.7324 48.5704 91.6639 48.4233 91.5268C48.2762 91.3897 48.2026 91.2158 48.2026 91.0051ZM52.3507 93.5782V97.8467H50.9061V92.4196H52.2604L52.3507 93.5782ZM52.14 94.9425H51.7488C51.7488 94.5413 51.8006 94.1801 51.9043 93.8591C52.0079 93.5348 52.1534 93.2589 52.3406 93.0315C52.5279 92.8008 52.7503 92.6252 53.0077 92.5048C53.2686 92.3811 53.5595 92.3193 53.8805 92.3193C54.1346 92.3193 54.367 92.356 54.5777 92.4296C54.7883 92.5032 54.9689 92.6202 55.1194 92.7807C55.2732 92.9412 55.3902 93.1536 55.4705 93.4177C55.5541 93.6819 55.5959 94.0046 55.5959 94.3858V97.8467H54.1413V94.3808C54.1413 94.14 54.1079 93.9527 54.041 93.819C53.9741 93.6852 53.8755 93.5916 53.7451 93.5381C53.618 93.4813 53.4608 93.4528 53.2736 93.4528C53.0796 93.4528 52.9108 93.4913 52.767 93.5682C52.6265 93.6451 52.5095 93.7521 52.4159 93.8892C52.3256 94.023 52.257 94.1801 52.2102 94.3607C52.1634 94.5413 52.14 94.7352 52.14 94.9425ZM58.1038 90.1424V97.8467H56.6592V90.1424H58.1038ZM57.8982 94.9425H57.5019C57.5052 94.5647 57.5554 94.2169 57.6524 93.8992C57.7494 93.5782 57.8881 93.3007 58.0687 93.0666C58.2493 92.8292 58.4649 92.6453 58.7157 92.5149C58.9699 92.3845 59.2507 92.3193 59.5584 92.3193C59.8259 92.3193 60.0683 92.3577 60.2857 92.4346C60.5064 92.5082 60.6953 92.6286 60.8525 92.7958C61.013 92.9596 61.1367 93.1753 61.2236 93.4428C61.3106 93.7103 61.354 94.0347 61.354 94.4159V97.8467H59.8995V94.4058C59.8995 94.1651 59.8644 93.9761 59.7941 93.839C59.7273 93.6986 59.6286 93.6 59.4982 93.5431C59.3711 93.4829 59.214 93.4528 59.0267 93.4528C58.8194 93.4528 58.6422 93.4913 58.495 93.5682C58.3512 93.6451 58.2359 93.7521 58.1489 93.8892C58.062 94.023 57.9985 94.1801 57.9583 94.3607C57.9182 94.5413 57.8982 94.7352 57.8982 94.9425ZM62.2218 95.1883V95.083C62.2218 94.685 62.2786 94.3189 62.3923 93.9845C62.506 93.6468 62.6715 93.3542 62.8889 93.1067C63.1062 92.8593 63.3737 92.667 63.6914 92.5299C64.0091 92.3895 64.3736 92.3193 64.7849 92.3193C65.1962 92.3193 65.5623 92.3895 65.8833 92.5299C66.2043 92.667 66.4735 92.8593 66.6909 93.1067C66.9116 93.3542 67.0788 93.6468 67.1925 93.9845C67.3061 94.3189 67.363 94.685 67.363 95.083V95.1883C67.363 95.5829 67.3061 95.949 67.1925 96.2868C67.0788 96.6211 66.9116 96.9137 66.6909 97.1645C66.4735 97.412 66.206 97.6042 65.8883 97.7413C65.5707 97.8784 65.2062 97.947 64.7949 97.947C64.3836 97.947 64.0174 97.8784 63.6964 97.7413C63.3788 97.6042 63.1096 97.412 62.8889 97.1645C62.6715 96.9137 62.506 96.6211 62.3923 96.2868C62.2786 95.949 62.2218 95.5829 62.2218 95.1883ZM63.6663 95.083V95.1883C63.6663 95.4157 63.6864 95.628 63.7265 95.8253C63.7667 96.0226 63.8302 96.1965 63.9171 96.347C64.0074 96.4941 64.1244 96.6094 64.2682 96.693C64.412 96.7766 64.5876 96.8184 64.7949 96.8184C64.9955 96.8184 65.1677 96.7766 65.3115 96.693C65.4553 96.6094 65.5707 96.4941 65.6576 96.347C65.7446 96.1965 65.8081 96.0226 65.8482 95.8253C65.8917 95.628 65.9134 95.4157 65.9134 95.1883V95.083C65.9134 94.8623 65.8917 94.655 65.8482 94.461C65.8081 94.2637 65.7429 94.0898 65.6526 93.9394C65.5657 93.7855 65.4503 93.6652 65.3065 93.5782C65.1627 93.4913 64.9888 93.4478 64.7849 93.4478C64.5809 93.4478 64.407 93.4913 64.2632 93.5782C64.1228 93.6652 64.0074 93.7855 63.9171 93.9394C63.8302 94.0898 63.7667 94.2637 63.7265 94.461C63.6864 94.655 63.6663 94.8623 63.6663 95.083ZM68.321 97.1495C68.321 96.9355 68.3946 96.7566 68.5417 96.6128C68.6922 96.469 68.8911 96.3971 69.1386 96.3971C69.386 96.3971 69.5833 96.469 69.7304 96.6128C69.8809 96.7566 69.9562 96.9355 69.9562 97.1495C69.9562 97.3635 69.8809 97.5424 69.7304 97.6862C69.5833 97.83 69.386 97.9019 69.1386 97.9019C68.8911 97.9019 68.6922 97.83 68.5417 97.6862C68.3946 97.5424 68.321 97.3635 68.321 97.1495ZM73.4722 96.8184C73.6495 96.8184 73.8066 96.785 73.9437 96.7181C74.0808 96.6479 74.1878 96.5509 74.2647 96.4272C74.345 96.3001 74.3868 96.1513 74.3901 95.9808H75.7494C75.7461 96.362 75.6441 96.7014 75.4435 96.999C75.2428 97.2933 74.9736 97.5257 74.6359 97.6962C74.2982 97.8634 73.9203 97.947 73.5023 97.947C73.081 97.947 72.7132 97.8768 72.3989 97.7363C72.0879 97.5959 71.8287 97.4019 71.6214 97.1545C71.4141 96.9037 71.2586 96.6128 71.1549 96.2817C71.0513 95.9474 70.9995 95.5896 70.9995 95.2084V95.0629C70.9995 94.6784 71.0513 94.3206 71.1549 93.9895C71.2586 93.6551 71.4141 93.3642 71.6214 93.1168C71.8287 92.866 72.0879 92.6704 72.3989 92.5299C72.7098 92.3895 73.0743 92.3193 73.4923 92.3193C73.937 92.3193 74.3266 92.4045 74.661 92.5751C74.9987 92.7456 75.2629 92.9897 75.4535 93.3074C75.6474 93.6217 75.7461 93.9945 75.7494 94.4259H74.3901C74.3868 94.2453 74.3483 94.0815 74.2748 93.9343C74.2046 93.7872 74.1009 93.6702 73.9638 93.5832C73.83 93.493 73.6645 93.4478 73.4672 93.4478C73.2566 93.4478 73.0844 93.493 72.9506 93.5832C72.8168 93.6702 72.7132 93.7906 72.6396 93.9444C72.5661 94.0949 72.5142 94.2671 72.4841 94.461C72.4574 94.6516 72.444 94.8522 72.444 95.0629V95.2084C72.444 95.419 72.4574 95.6213 72.4841 95.8153C72.5109 96.0092 72.561 96.1814 72.6346 96.3319C72.7115 96.4824 72.8168 96.6011 72.9506 96.688C73.0844 96.775 73.2582 96.8184 73.4722 96.8184ZM76.3563 95.1883V95.083C76.3563 94.685 76.4132 94.3189 76.5269 93.9845C76.6406 93.6468 76.8061 93.3542 77.0234 93.1067C77.2408 92.8593 77.5083 92.667 77.826 92.5299C78.1436 92.3895 78.5081 92.3193 78.9194 92.3193C79.3307 92.3193 79.6969 92.3895 80.0179 92.5299C80.3389 92.667 80.6081 92.8593 80.8254 93.1067C81.0461 93.3542 81.2133 93.6468 81.327 93.9845C81.4407 94.3189 81.4975 94.685 81.4975 95.083V95.1883C81.4975 95.5829 81.4407 95.949 81.327 96.2868C81.2133 96.6211 81.0461 96.9137 80.8254 97.1645C80.6081 97.412 80.3406 97.6042 80.0229 97.7413C79.7052 97.8784 79.3407 97.947 78.9294 97.947C78.5181 97.947 78.152 97.8784 77.831 97.7413C77.5133 97.6042 77.2441 97.412 77.0234 97.1645C76.8061 96.9137 76.6406 96.6211 76.5269 96.2868C76.4132 95.949 76.3563 95.5829 76.3563 95.1883ZM77.8009 95.083V95.1883C77.8009 95.4157 77.821 95.628 77.8611 95.8253C77.9012 96.0226 77.9647 96.1965 78.0517 96.347C78.142 96.4941 78.259 96.6094 78.4028 96.693C78.5466 96.7766 78.7221 96.8184 78.9294 96.8184C79.1301 96.8184 79.3023 96.7766 79.4461 96.693C79.5899 96.6094 79.7052 96.4941 79.7922 96.347C79.8791 96.1965 79.9426 96.0226 79.9828 95.8253C80.0262 95.628 80.048 95.4157 80.048 95.1883V95.083C80.048 94.8623 80.0262 94.655 79.9828 94.461C79.9426 94.2637 79.8774 94.0898 79.7871 93.9394C79.7002 93.7855 79.5848 93.6652 79.4411 93.5782C79.2973 93.4913 79.1234 93.4478 78.9194 93.4478C78.7154 93.4478 78.5416 93.4913 78.3978 93.5782C78.2573 93.6652 78.142 93.7855 78.0517 93.9394C77.9647 94.0898 77.9012 94.2637 77.8611 94.461C77.821 94.655 77.8009 94.8623 77.8009 95.083ZM83.8299 93.5431V97.8467H82.3803V92.4196H83.7396L83.8299 93.5431ZM83.6293 94.9425H83.228C83.228 94.5647 83.2731 94.2169 83.3634 93.8992C83.457 93.5782 83.5925 93.3007 83.7697 93.0666C83.9503 92.8292 84.1726 92.6453 84.4368 92.5149C84.701 92.3845 85.0069 92.3193 85.3547 92.3193C85.5955 92.3193 85.8162 92.356 86.0168 92.4296C86.2174 92.4998 86.3896 92.6118 86.5334 92.7657C86.6805 92.9161 86.7942 93.1134 86.8745 93.3575C86.9547 93.5983 86.9949 93.8875 86.9949 94.2253V97.8467H85.5503V94.3858C85.5503 94.1383 85.5169 93.9477 85.45 93.814C85.3831 93.6802 85.2878 93.5866 85.1641 93.5331C85.0437 93.4796 84.8983 93.4528 84.7277 93.4528C84.5405 93.4528 84.3766 93.4913 84.2362 93.5682C84.0991 93.6451 83.9854 93.7521 83.8951 93.8892C83.8048 94.023 83.7379 94.1801 83.6945 94.3607C83.651 94.5413 83.6293 94.7352 83.6293 94.9425ZM86.8594 94.777L86.3428 94.8422C86.3428 94.4878 86.3863 94.1584 86.4732 93.8541C86.5635 93.5498 86.6956 93.2823 86.8695 93.0516C87.0467 92.8208 87.2657 92.6419 87.5265 92.5149C87.7874 92.3845 88.0883 92.3193 88.4294 92.3193C88.6902 92.3193 88.9276 92.3577 89.1416 92.4346C89.3556 92.5082 89.5379 92.6269 89.6884 92.7907C89.8422 92.9512 89.9592 93.1619 90.0395 93.4227C90.1231 93.6836 90.1649 94.0029 90.1649 94.3808V97.8467H88.7153V94.3808C88.7153 94.13 88.6819 93.9394 88.615 93.809C88.5514 93.6752 88.4578 93.5832 88.3341 93.5331C88.2137 93.4796 88.0699 93.4528 87.9027 93.4528C87.7288 93.4528 87.5767 93.4879 87.4463 93.5582C87.3159 93.625 87.2072 93.7187 87.1203 93.839C87.0333 93.9594 86.9681 94.0999 86.9246 94.2604C86.8812 94.4175 86.8594 94.5897 86.8594 94.777Z" fill="white"/>
</g>
<path d="M73.452 41.9761V65.8766C73.452 70.7645 72.1627 74.4592 69.5841 76.9609C67.0054 79.4241 63.3107 80.6557 58.4998 80.6557C53.7274 80.6557 50.0326 79.4241 47.4155 76.9609C44.8368 74.4592 43.5475 70.7645 43.5475 65.8766V41.9761H48.166V64.722C48.166 68.6862 48.9934 71.6112 50.6484 73.4971C52.3418 75.3829 54.959 76.3259 58.4998 76.3259C62.0406 76.3259 64.6385 75.3829 66.2934 73.4971C67.9869 71.6112 68.8336 68.6862 68.8336 64.722V41.9761H73.452Z" fill="white"/>
<path d="M73.452 41.9761H76.4905V38.9376H73.452V41.9761ZM69.5841 76.9609L71.6828 79.1581L71.6913 79.1499L71.6998 79.1417L69.5841 76.9609ZM47.4155 76.9609L45.2998 79.1417L45.3163 79.1577L45.333 79.1735L47.4155 76.9609ZM43.5475 41.9761V38.9376H40.5091V41.9761H43.5475ZM48.166 41.9761H51.2044V38.9376H48.166V41.9761ZM50.6484 73.4971L48.3646 75.5012L48.376 75.5142L48.3876 75.5271L50.6484 73.4971ZM66.2934 73.4971L64.0327 71.467L64.0211 71.4799L64.0096 71.4929L66.2934 73.4971ZM68.8336 41.9761V38.9376H65.7951V41.9761H68.8336ZM70.4136 41.9761V65.8766H76.4905V41.9761H70.4136ZM70.4136 65.8766C70.4136 70.248 69.2691 73.0331 67.4684 74.7801L71.6998 79.1417C75.0563 75.8854 76.4905 71.281 76.4905 65.8766H70.4136ZM67.4853 74.7638C65.6457 76.521 62.8077 77.6172 58.4998 77.6172V83.6941C63.8136 83.6941 68.3651 82.3272 71.6828 79.1581L67.4853 74.7638ZM58.4998 77.6172C54.2412 77.6172 51.3869 76.5261 49.4979 74.7483L45.333 79.1735C48.6783 82.322 53.2135 83.6941 58.4998 83.6941V77.6172ZM49.5312 74.7801C47.7305 73.0331 46.586 70.248 46.586 65.8766H40.5091C40.5091 71.281 41.9432 75.8854 45.2998 79.1417L49.5312 74.7801ZM46.586 65.8766V41.9761H40.5091V65.8766H46.586ZM43.5475 45.0145H48.166V38.9376H43.5475V45.0145ZM45.1275 41.9761V64.722H51.2044V41.9761H45.1275ZM45.1275 64.722C45.1275 69.0176 46.0094 72.8174 48.3646 75.5012L52.9322 71.4929C51.9775 70.405 51.2044 68.3548 51.2044 64.722H45.1275ZM48.3876 75.5271C50.8577 78.2778 54.4502 79.3643 58.4998 79.3643V73.2874C55.4677 73.2874 53.826 72.488 52.9092 71.467L48.3876 75.5271ZM58.4998 79.3643C62.5436 79.3643 66.1387 78.28 68.5772 75.5012L64.0096 71.4929C63.1383 72.4859 61.5376 73.2874 58.4998 73.2874V79.3643ZM68.5542 75.5271C70.965 72.8423 71.872 69.0313 71.872 64.722H65.7951C65.7951 68.341 65.0087 70.38 64.0327 71.467L68.5542 75.5271ZM71.872 64.722V41.9761H65.7951V64.722H71.872ZM68.8336 45.0145H73.452V38.9376H68.8336V45.0145Z" fill="white"/>
<g filter="url(#filter1_d_106_1027)">
<path fill-rule="evenodd" clip-rule="evenodd" d="M105.761 6.15672L10.1569 6.4614L10.4614 102.065L106.065 101.761L105.761 6.15672ZM105.748 2.00002C108.044 1.99262 109.91 3.84797 109.918 6.14331L110.222 101.747C110.23 104.043 108.374 105.91 106.079 105.918L10.4748 106.222C8.17887 106.23 6.31219 104.374 6.30471 102.079L6.00002 6.47484C5.99262 4.17888 7.84795 2.31219 10.1433 2.30471L105.748 2.00002Z" fill="white"/>
<path d="M105.748 2.00002C108.044 1.99262 109.91 3.84797 109.918 6.14331L110.222 101.747M105.748 2.00002V2.00002ZM105.748 2.00002L10.1433 2.30471C7.84795 2.31219 5.99262 4.17888 6.00002 6.47484M110.222 101.747V101.747ZM110.222 101.747C110.23 104.043 108.374 105.91 106.079 105.918L10.4748 106.222M10.4748 106.222V106.222ZM10.4748 106.222C8.17887 106.23 6.31219 104.374 6.30471 102.079L6.00002 6.47484M6.00002 6.47484V6.47484ZM105.761 6.15672L10.1569 6.4614L10.4614 102.065L106.065 101.761L105.761 6.15672Z" stroke="white" stroke-width="3" stroke-miterlimit="10" stroke-linecap="round" stroke-linejoin="round"/>
</g>
<path fill-rule="evenodd" clip-rule="evenodd" d="M59.814 15.7245C60.354 16.7374 59.9705 17.9962 58.9576 18.5361L23.6784 37.3407C22.6655 37.8806 21.4067 37.4972 20.8668 36.4843C20.3268 35.4713 20.7103 34.2125 21.7232 33.6726L57.0024 14.868C58.0153 14.3281 59.2741 14.7115 59.814 15.7245Z" fill="white" stroke="white" stroke-width="3" stroke-miterlimit="10" stroke-linecap="round" stroke-linejoin="round"/>
<path fill-rule="evenodd" clip-rule="evenodd" d="M56.1403 15.7348C56.6745 14.7189 57.9312 14.3283 58.9472 14.8625L94.3321 33.4682C95.348 34.0024 95.7386 35.2591 95.2044 36.275C94.6702 37.291 93.4135 37.6815 92.3976 37.1473L57.0126 18.5416C55.9967 18.0074 55.6061 16.7508 56.1403 15.7348Z" fill="white" stroke="white" stroke-width="3" stroke-miterlimit="10" stroke-linecap="round" stroke-linejoin="round"/>
<defs>
<filter id="filter0_d_106_1027" x="23.6946" y="90.1423" width="68.6328" height="12.1299" filterUnits="userSpaceOnUse" color-interpolation-filters="sRGB">
<feFlood flood-opacity="0" result="BackgroundImageFix"/>
<feColorMatrix in="SourceAlpha" type="matrix" values="0 0 0 0 0 0 0 0 0 0 0 0 0 0 0 0 0 0 127 0" result="hardAlpha"/>
<feOffset dy="2.16261"/>
<feGaussianBlur stdDeviation="1.0813"/>
<feComposite in2="hardAlpha" operator="out"/>
<feColorMatrix type="matrix" values="0 0 0 0 0 0 0 0 0 0 0 0 0 0 0 0 0 0 0.25 0"/>
<feBlend mode="normal" in2="BackgroundImageFix" result="effect1_dropShadow_106_1027"/>
<feBlend mode="normal" in="SourceGraphic" in2="effect1_dropShadow_106_1027" result="shape"/>
</filter>
<filter id="filter1_d_106_1027" x="0.5" y="0.5" width="115.222" height="115.222" filterUnits="userSpaceOnUse" color-interpolation-filters="sRGB">
<feFlood flood-opacity="0" result="BackgroundImageFix"/>
<feColorMatrix in="SourceAlpha" type="matrix" values="0 0 0 0 0 0 0 0 0 0 0 0 0 0 0 0 0 0 127 0" result="hardAlpha"/>
<feOffset dy="4"/>
<feGaussianBlur stdDeviation="2"/>
<feComposite in2="hardAlpha" operator="out"/>
<feColorMatrix type="matrix" values="0 0 0 0 0 0 0 0 0 0 0 0 0 0 0 0 0 0 0.25 0"/>
<feBlend mode="normal" in2="BackgroundImageFix" result="effect1_dropShadow_106_1027"/>
<feBlend mode="normal" in="SourceGraphic" in2="effect1_dropShadow_106_1027" result="shape"/>
</filter>
</defs>
</svg>
